<?xml version="1.0" standalone="no"?>
<!DOCTYPE svg PUBLIC "-//W3C//DTD SVG 20010904//EN"
 "http://www.w3.org/TR/2001/REC-SVG-20010904/DTD/svg10.dtd">
<svg version="1.0" xmlns="http://www.w3.org/2000/svg"
 width="1024.000000pt" height="1024.000000pt" viewBox="0 0 1024.000000 1024.000000"
 preserveAspectRatio="xMidYMid meet">
<metadata>
Created by potrace 1.14, written by Peter Selinger 2001-2017
</metadata>
<g transform="translate(0.000000,1024.000000) scale(0.100000,-0.100000)"
fill="#000000" stroke="none">
<path d="M4829 10236 c-2 -2 -49 -6 -104 -10 -55 -3 -111 -8 -125 -10 -14 -3
-52 -7 -85 -10 -33 -3 -69 -8 -80 -10 -11 -2 -42 -7 -70 -10 -44 -6 -85 -13
-190 -32 -86 -15 -231 -47 -315 -70 -52 -13 -102 -26 -110 -28 -100 -25 -392
-121 -485 -161 -16 -7 -66 -27 -110 -45 -182 -74 -432 -197 -597 -295 -9 -5
-36 -21 -59 -33 -106 -58 -426 -279 -545 -375 -445 -361 -798 -741 -1078
-1162 -157 -236 -212 -328 -318 -535 -83 -163 -241 -524 -253 -580 -2 -8 -13
-42 -26 -75 -18 -49 -68 -204 -84 -265 -23 -83 -65 -249 -69 -269 -3 -14 -12
-57 -20 -96 -21 -97 -33 -165 -41 -224 -2 -14 -4 -26 -5 -26 -1 0 -3 -13 -5
-30 -2 -16 -7 -48 -10 -70 -3 -22 -8 -60 -10 -85 -3 -25 -7 -61 -10 -80 -27
-231 -28 -827 -1 -1050 3 -19 7 -62 11 -95 3 -33 8 -69 10 -80 3 -11 7 -38 10
-60 9 -70 30 -183 61 -344 7 -36 83 -331 94 -366 155 -486 313 -839 548 -1220
107 -174 313 -462 389 -545 13 -14 23 -28 23 -32 0 -22 21 -2 54 52 85 138
335 471 465 620 12 14 50 57 84 95 109 125 419 427 567 554 171 146 173 148
225 186 22 16 42 33 45 36 3 4 73 56 155 116 390 285 793 527 1280 768 221
108 299 145 485 227 25 11 59 25 75 33 79 34 128 55 220 93 173 70 335 132
347 132 28 0 -5 12 -44 16 -305 30 -1071 36 -1338 9 -19 -1 -75 -6 -125 -9
-49 -4 -106 -9 -125 -11 -157 -17 -145 -16 -264 -31 -27 -3 -56 -7 -65 -9 -9
-1 -41 -6 -71 -10 -93 -11 -407 -67 -510 -90 -119 -26 -255 -58 -296 -69 l-51
-13 -34 56 c-19 31 -39 65 -45 76 -19 35 -49 86 -156 270 -57 99 -116 200
-130 225 -53 95 -72 126 -86 143 -8 9 -12 17 -8 17 4 0 -1 12 -12 28 -18 25
-335 569 -361 620 -7 12 -8 21 -4 20 7 -2 105 9 143 17 8 1 39 5 68 9 28 3 67
8 85 11 104 15 257 36 287 40 19 2 87 11 150 20 63 9 133 18 155 21 40 4 106
14 135 19 8 1 40 6 70 10 30 3 66 8 80 10 21 3 80 11 225 30 42 6 185 26 215
30 14 2 43 6 65 9 88 11 131 17 155 21 14 2 45 6 70 10 25 3 77 10 115 16 39
5 86 11 105 13 19 2 49 6 65 9 17 3 53 9 80 12 28 3 61 8 75 10 43 7 344 47
375 50 17 2 62 8 102 14 77 12 71 7 189 137 15 16 59 63 98 104 146 156 345
366 377 401 19 20 88 94 154 164 136 146 144 154 304 324 64 69 130 139 146
156 36 38 257 273 311 331 22 23 93 99 159 170 66 70 134 142 150 159 17 18
82 87 145 154 63 68 137 146 164 174 26 29 79 85 117 126 38 40 70 67 70 60 5
-43 7 -90 13 -238 4 -91 9 -197 11 -235 2 -39 7 -129 10 -201 3 -71 8 -159 10
-195 3 -60 14 -269 20 -415 6 -138 16 -345 20 -420 10 -185 15 -296 31 -615 3
-69 7 -126 8 -128 4 -4 91 -18 163 -27 12 -2 34 -6 50 -9 15 -3 42 -8 58 -10
146 -21 172 -25 235 -36 71 -12 126 -20 170 -26 19 -2 46 -6 60 -9 14 -3 43
-7 65 -11 62 -8 98 -14 125 -19 14 -2 43 -7 65 -10 22 -3 51 -8 65 -10 14 -2
57 -9 95 -15 39 -6 81 -13 95 -15 14 -2 75 -11 135 -20 61 -10 119 -19 130
-21 11 -3 38 -7 60 -9 22 -3 96 -15 165 -26 246 -39 306 -48 350 -54 25 -3 56
-8 70 -10 14 -3 41 -7 60 -10 19 -3 60 -10 90 -15 48 -8 94 -15 175 -26 11 -1
29 -3 40 -3 31 -2 49 12 -340 -253 -77 -52 -178 -121 -225 -152 -47 -32 -94
-64 -105 -72 -11 -8 -99 -67 -195 -132 -96 -65 -218 -148 -270 -183 -52 -36
-178 -122 -280 -191 -228 -154 -479 -325 -625 -424 -352 -240 -648 -441 -702
-477 -61 -41 -62 -43 -81 -117 -11 -41 -43 -158 -71 -260 -108 -390 -249 -907
-256 -938 -5 -20 -132 -483 -176 -637 -17 -60 -32 -117 -34 -125 -5 -21 -26
-101 -75 -275 -22 -82 -55 -202 -71 -265 -17 -63 -34 -118 -38 -123 -7 -7 -75
38 -421 276 -69 47 -163 112 -210 144 -197 134 -620 426 -760 523 -84 58 -159
110 -168 115 -10 6 -81 54 -160 108 -114 79 -147 97 -165 91 -22 -7 -436 -182
-492 -208 -16 -7 -59 -26 -95 -41 -171 -72 -462 -195 -503 -214 -25 -12 -48
-21 -51 -21 -3 0 -29 -11 -58 -24 -29 -14 -235 -102 -458 -196 -740 -314 -785
-333 -795 -342 -16 -14 278 -293 490 -464 186 -150 455 -338 595 -416 25 -14
70 -40 100 -58 133 -79 424 -219 614 -295 192 -76 533 -188 642 -209 10 -2 57
-13 104 -25 47 -11 96 -22 110 -25 14 -2 36 -7 50 -10 14 -3 39 -8 55 -11 17
-3 68 -11 115 -19 89 -15 142 -23 225 -32 28 -3 64 -7 80 -9 186 -27 868 -27
1060 0 17 3 53 7 80 10 860 100 1724 443 2420 960 234 174 380 300 590 510
292 291 520 582 762 970 12 20 79 136 120 210 207 371 407 910 499 1347 19 92
26 127 30 153 3 17 11 66 19 110 7 44 16 100 19 125 3 25 8 65 11 90 12 105
15 130 22 225 16 198 8 786 -12 906 -2 13 -6 51 -9 84 -3 33 -8 69 -10 80 -2
11 -7 45 -11 75 -36 280 -146 712 -255 1001 -22 59 -40 109 -40 112 0 4 -11
30 -24 59 -13 29 -49 110 -79 179 -85 189 -215 434 -299 562 -21 32 -38 61
-38 64 0 2 -40 64 -90 136 -182 267 -383 509 -615 742 -181 180 -218 215 -390
356 -161 132 -322 246 -570 404 -50 32 -186 108 -320 179 -108 58 -316 152
-465 211 -124 49 -392 142 -429 149 -9 1 -41 10 -72 20 -31 9 -66 19 -78 21
-41 9 -56 13 -116 28 -33 9 -71 18 -85 21 -14 2 -50 10 -80 16 -30 6 -66 13
-80 15 -14 2 -61 11 -105 19 -45 8 -112 17 -150 21 -39 4 -72 9 -75 10 -3 2
-43 6 -90 10 -47 4 -98 10 -115 12 -36 5 -691 14 -696 9z"/>
</g>
</svg>
