<svg id="Layer_1" data-name="Layer 1" xmlns="http://www.w3.org/2000/svg" viewBox="0 0 512 131.81"><path d="M65.91,0h0A65.91,65.91,0,0,0,0,65.91H0A65.64,65.64,0,0,0,15.22,108C27,89.42,45.56,78.29,66.74,70.28a110.81,110.81,0,0,0-37.37,3L18.5,54.52l37.32-5.1L85.65,17.65l1.53,31.77L120,54.52,83.59,79.24,74,114.16,50,97.68,18.1,111.27a65.69,65.69,0,0,0,47.81,20.54h0a65.89,65.89,0,0,0,65.9-65.9h0A65.9,65.9,0,0,0,65.91,0Z" style="fill:#fff"/><path d="M158.18,89.48l7-12.59a35.3,35.3,0,0,0,9.74,4,44.9,44.9,0,0,0,11,1.39c5.06,0,7.58-1.35,7.58-4.07A3.36,3.36,0,0,0,191.4,75a20,20,0,0,0-7-1.4q-11-.59-17.43-5.48a15.36,15.36,0,0,1-6.47-12.83,16,16,0,0,1,7-13.69q7-5.07,18.89-5.07a49.68,49.68,0,0,1,12.88,1.63,36,36,0,0,1,10.55,4.54L202.71,55a30.69,30.69,0,0,0-15.5-3.73q-8.86,0-8.86,4.19a2.91,2.91,0,0,0,1.8,2.68,18.74,18.74,0,0,0,6.12,1.4q12.36.93,18.83,5.6a15.18,15.18,0,0,1,6.47,13.06,16.2,16.2,0,0,1-7.11,13.93q-7.11,5.07-19.7,5.07Q169.49,97.18,158.18,89.48Z" style="fill:#fff"/><path d="M262.63,93.45a33.74,33.74,0,0,1-15.27,3.38q-9.44,0-14.92-5.31T227,74.44V52.64h-9.79V38.07H227V23.73l18.19-2V38.07h14.34V52.64H245.15v21.8q0,3.51,1.74,5.19a6.58,6.58,0,0,0,4.78,1.69,14.7,14.7,0,0,0,6.65-1.63Z" style="fill:#fff"/><path d="M330.83,38.07V95.66H315l-1.17-6.88q-7.33,8.06-19.12,8A26.93,26.93,0,0,1,280.41,93a26,26,0,0,1-9.73-10.61,33.64,33.64,0,0,1-3.5-15.56,33.68,33.68,0,0,1,3.5-15.57,26.09,26.09,0,0,1,9.73-10.61,27,27,0,0,1,14.28-3.79A27.61,27.61,0,0,1,305.42,39a23.36,23.36,0,0,1,8.39,5.88L315,38.07ZM308.92,77.42a14.64,14.64,0,0,0,3.84-10.55,14.63,14.63,0,0,0-3.84-10.55,13.09,13.09,0,0,0-9.91-4,12.82,12.82,0,0,0-9.85,4.08,14.82,14.82,0,0,0-3.79,10.5,14.79,14.79,0,0,0,3.79,10.49A12.82,12.82,0,0,0,299,81.44,13.12,13.12,0,0,0,308.92,77.42Z" style="fill:#fff"/><path d="M385.28,38.25a19.54,19.54,0,0,1,6.87,4.25l-7.69,13.41a22.2,22.2,0,0,0-4.55-2.22,14,14,0,0,0-4.43-.7,11.85,11.85,0,0,0-9.21,3.73q-3.37,3.73-3.38,11v28h-18.3V38.07h16L362,45.3q5.6-8.5,15.39-8.51A22.7,22.7,0,0,1,385.28,38.25Z" style="fill:#fff"/><path d="M439,38.25a19.58,19.58,0,0,1,6.88,4.25l-7.69,13.41a22.45,22.45,0,0,0-4.55-2.22,14.12,14.12,0,0,0-4.43-.7A11.82,11.82,0,0,0,420,56.72q-3.39,3.73-3.38,11v28H398.33V38.07h16l1.39,7.23q5.61-8.5,15.39-8.51A22.62,22.62,0,0,1,439,38.25Z" style="fill:#fff"/><path d="M492.18,38.07H512l-35.91,82.54H456.62l11.2-25.76L445.43,38.07h19.7l6.65,18.19L478.07,75l6.77-18.77Z" style="fill:#fff"/></svg>